<?xml version="1.0" standalone="no"?><!DOCTYPE svg PUBLIC "-//W3C//DTD SVG 1.1//EN" "http://www.w3.org/Graphics/SVG/1.1/DTD/svg11.dtd"><svg t="1555292610441" class="icon" style="" viewBox="0 0 1024 1024" version="1.1" xmlns="http://www.w3.org/2000/svg" p-id="28195" xmlns:xlink="http://www.w3.org/1999/xlink" width="200" height="200"><defs><style type="text/css"></style></defs><path d="M238.668034 1023.874678c-14.334245 0-28.668491-4.607436-40.954987-13.822308-21.501368-16.381995-32.252052-43.514674-27.644617-71.159291l43.514674-263.647729c1.535812-10.238747-1.535812-20.989431-8.702935-28.156554L21.094665 460.231668C2.152983 440.778049-5.014139 412.109558 3.688795 386.000754c8.190997-26.620742 29.692366-45.562423 56.313108-49.657922l253.408982-38.395301c9.726809-1.535812 18.429744-8.190997 23.037181-17.405869L449.586217 40.44305C461.360776 15.35812 485.421831 0 512.042573 0s50.681797 15.35812 62.456355 40.44305l113.138152 240.098612c4.607436 9.214872 12.798433 15.870058 23.03718 17.405869l253.408983 38.395301c26.620742 4.095499 48.12211 23.03718 56.313107 49.657922 8.190997 26.620742 1.535812 55.289233-17.405869 74.230914L819.204976 647.088796c-7.167123 7.167123-10.238747 17.917807-8.702935 28.156554l8.190998 49.657922c2.047749 11.262621-5.119373 21.501368-15.870058 23.549117-10.750684 2.047749-20.989431-5.631311-22.525243-16.893932l-8.190997-49.657922c-4.095499-23.549118 3.583561-47.610173 19.965556-64.504104l183.273567-186.857129c8.702935-8.702935 11.262621-20.477494 7.679061-32.76399-3.583561-11.774559-12.798433-19.965556-24.572993-21.501368L705.04295 337.878644c-22.525243-3.583561-42.490799-18.429744-52.217609-39.931113l-113.138152-240.098612c-5.119373-11.262621-15.35812-17.917807-27.132679-17.917807s-22.013306 6.655185-27.132679 17.917807l-114.162026 240.61055c-10.238747 21.501368-29.692366 36.347551-52.217609 39.931112l-253.408983 38.3953c-11.774559 2.047749-20.989431 9.726809-24.572992 21.501369-3.583561 11.774559-1.023875 24.061055 7.67906 32.763989l183.273567 186.857129c16.381995 16.893932 24.061055 40.954987 19.965557 64.504105l-43.514674 263.647729c-2.047749 12.286496 2.559687 23.549118 12.286496 31.228178s21.501368 8.190997 31.740115 2.559687L479.79052 854.935356c20.477494-11.262621 44.538548-11.262621 65.016042 0l226.788242 124.400773c10.750684 5.631311 22.525243 5.119373 31.740115-2.559686 9.726809-7.167123 14.334245-18.941682 12.286496-31.228178l-7.167123-44.538549c-2.047749-11.262621 5.119373-21.501368 15.870058-23.549117 10.750684-2.047749 20.989431 5.631311 22.525242 16.893932l7.167123 44.538548c4.607436 27.644616-6.143248 54.777295-27.644616 71.159291-21.501368 16.381995-49.657922 18.429744-73.20704 5.63131L526.376818 890.77097c-8.702935-5.119373-19.453619-5.119373-28.156553 0L271.432024 1015.171743c-10.750684 6.143248-21.501368 8.702935-32.76399 8.702935z" fill="#ffffff" p-id="28196"></path></svg>