<?xml version="1.0" encoding="utf-8"?>
<svg width="24px" height="24px" viewBox="0 0 24 24" version="1.1" xmlns:xlink="http://www.w3.org/1999/xlink" xmlns="http://www.w3.org/2000/svg">
  <desc>Created with Lunacy</desc>
  <g id="社区动态icon">
    <path d="M0 0L24 0L24 24L0 24L0 0Z" id="Rectangle-2" fill="none" stroke="none" />
    <g id="Group-2" transform="translate(3 2)">
      <path d="M12 16.2527C12 15.0679 12 13.2517 12 13.2517C12 11.5948 10.6569 10.2517 9 10.2517C7.34315 10.2517 6 11.5948 6 13.2517L6 16.2527C6 16.8044 5.55273 17.2517 5.001 17.2517C3.542 17.2517 1 17.2517 1 17.2517C0.447715 17.2517 6.76354e-17 16.804 0 16.2517C0 16.2517 1.33227e-15 5.42849 1.33227e-15 5.42849C9.2076e-16 4.70216 0.393784 4.03292 1.02871 3.68018C1.02871 3.68018 8.02871 0.251685 8.02871 0.251685C8.63276 -0.0838951 9.36724 -0.0838951 9.97129 0.251685C9.97129 0.251685 16.9713 3.68018 16.9713 3.68018C17.6062 4.03292 18 4.70216 18 5.42849C18 5.42849 18 16.2517 18 16.2517C18 16.804 17.5523 17.2517 17 17.2517L12.999 17.2517C12.4473 17.2517 12 16.8044 12 16.2527Z" transform="translate(0 0.7483146)" id="Combined-Shape" fill="#408CFF" stroke="none" />
    </g>
  </g>
</svg>