<?xml version="1.0" encoding="utf-8"?>
<svg width="24px" height="24px" viewBox="0 0 24 24" version="1.1" xmlns:xlink="http://www.w3.org/1999/xlink" xmlns="http://www.w3.org/2000/svg">
  <desc>Created with Lunacy</desc>
  <defs>
    <path d="M5.98942 5.31009e-15L9.99142 5.31009e-15Q10.0896 5.31009e-15 10.1874 0.00962573Q10.2851 0.0192515 10.3814 0.0384102Q10.4777 0.057569 10.5717 0.0860763Q10.6657 0.114584 10.7564 0.152165Q10.8471 0.189746 10.9337 0.236039Q11.0203 0.282333 11.102 0.336892Q11.1837 0.391452 11.2596 0.453752Q11.3355 0.516052 11.4049 0.585494Q11.4744 0.654935 11.5367 0.730848Q11.599 0.806761 11.6535 0.888415Q11.7081 0.970069 11.7544 1.05668Q11.8007 1.14329 11.8383 1.23402Q11.8758 1.32474 11.9043 1.41872Q11.9328 1.5127 11.952 1.60901Q11.9712 1.70533 11.9808 1.80306Q11.9904 1.9008 11.9904 1.999L11.9904 6L14.9833 6Q15.0206 6 15.0577 6.00277Q15.0948 6.00554 15.1316 6.01106Q15.1684 6.01659 15.2047 6.02483Q15.241 6.03308 15.2766 6.044Q15.3121 6.05493 15.3468 6.06847Q15.3815 6.08201 15.415 6.09809Q15.4486 6.11417 15.4809 6.13271Q15.5132 6.15124 15.544 6.17213Q15.5748 6.19302 15.6039 6.21614Q15.6331 6.23926 15.6605 6.26448Q15.6878 6.28971 15.7132 6.3169Q15.7386 6.34409 15.762 6.3731Q15.7853 6.40211 15.8064 6.43277Q15.8275 6.46343 15.8462 6.49558Q15.865 6.52772 15.8813 6.56118Q15.8976 6.59463 15.9114 6.6292Q15.9252 6.66378 15.9363 6.69928Q15.9475 6.73478 15.956 6.77102Q15.9645 6.80726 15.9702 6.84402Q15.976 6.88079 15.979 6.91788Q15.9821 6.95498 15.9823 6.9922Q15.9826 7.02941 15.9801 7.06655Q15.9775 7.10368 15.9723 7.14052Q15.967 7.17736 15.959 7.21371Q15.951 7.25006 15.9403 7.28571Q15.9296 7.32136 15.9163 7.35612Q15.903 7.39088 15.8872 7.42455Q15.8713 7.45822 15.853 7.49062Q15.8347 7.52302 15.814 7.55397Q15.7933 7.58492 15.7704 7.61424Q15.7475 7.64356 15.7225 7.6711Q15.6974 7.69863 15.6704 7.72423L9.36522 13.6976Q9.29638 13.7628 9.22168 13.8212Q9.14699 13.8796 9.06709 13.9306Q8.9872 13.9817 8.90283 14.025Q8.81847 14.0683 8.73038 14.1034Q8.6423 14.1385 8.55128 14.1651Q8.46027 14.1917 8.36715 14.2096Q8.27403 14.2274 8.17963 14.2364Q8.08524 14.2454 7.99042 14.2454Q7.8956 14.2454 7.8012 14.2364Q7.70681 14.2274 7.61368 14.2096Q7.52056 14.1917 7.42955 14.1651Q7.33854 14.1385 7.25045 14.1034Q7.16237 14.0683 7.078 14.025Q6.99363 13.9817 6.91374 13.9306Q6.83385 13.8796 6.75915 13.8212Q6.68445 13.7628 6.61562 13.6976L0.310436 7.72423Q0.283417 7.69863 0.258379 7.6711Q0.23334 7.64356 0.210419 7.61424Q0.187499 7.58492 0.166823 7.55397Q0.146148 7.52302 0.127833 7.49062Q0.109517 7.45822 0.0936634 7.42455Q0.0778095 7.39088 0.064505 7.35612Q0.0512005 7.32136 0.0405191 7.28571Q0.0298378 7.25006 0.0218388 7.21371Q0.0138397 7.17736 0.00856744 7.14052Q0.00329513 7.10368 0.000778756 7.06655Q-0.00173762 7.02941 -0.00148411 6.9922Q-0.0012306 6.95498 0.00179138 6.91788Q0.00481337 6.88079 0.0105871 6.84402Q0.0163608 6.80726 0.0248542 6.77102Q0.0333476 6.73479 0.0445137 6.69928Q0.0556797 6.66378 0.0694565 6.6292Q0.0832333 6.59463 0.0995444 6.56118Q0.115855 6.52772 0.13461 6.49558Q0.153366 6.46343 0.17446 6.43277Q0.195555 6.40211 0.218873 6.3731Q0.242191 6.34409 0.267603 6.3169Q0.293015 6.28971 0.320379 6.26448Q0.347744 6.23926 0.376909 6.21614Q0.406075 6.19302 0.43688 6.17213Q0.467685 6.15125 0.499958 6.13271Q0.532232 6.11417 0.565795 6.09809Q0.599359 6.08201 0.634026 6.06847Q0.668693 6.05493 0.704271 6.044Q0.739849 6.03308 0.776142 6.02483Q0.812435 6.01659 0.84924 6.01106Q0.886046 6.00554 0.92316 6.00277Q0.960275 6 0.997493 6L3.99042 6L3.99042 1.999Q3.99042 1.9008 4.00004 1.80306Q4.00967 1.70533 4.02883 1.60901Q4.04799 1.5127 4.0765 1.41872Q4.105 1.32474 4.14258 1.23402Q4.18016 1.14329 4.22646 1.05668Q4.27275 0.970069 4.32731 0.888415Q4.38187 0.806761 4.44417 0.730848Q4.50647 0.654935 4.57591 0.585494Q4.64535 0.516052 4.72127 0.453752Q4.79718 0.391452 4.87883 0.336892Q4.96049 0.282333 5.0471 0.236039Q5.13371 0.189746 5.22443 0.152165Q5.31516 0.114584 5.40914 0.0860763Q5.50311 0.057569 5.59943 0.0384102Q5.69575 0.0192515 5.79348 0.00962573Q5.89121 5.31009e-15 5.98942 5.31009e-15L5.98942 5.31009e-15Z" transform="translate(1.009581 0)" id="path_1" />
    <clipPath id="clip_1">
      <use xlink:href="#path_1" />
    </clipPath>
  </defs>
  <g id="社区动态icon">
    <path d="M0 0L24 0L24 24L0 24L0 0Z" id="Rectangle-2" fill="none" stroke="none" />
    <g id="Group-9" transform="translate(3 3)">
      <g id="Rectangle-18">
        <g clip-path="url(#clip_1)">
          <use xlink:href="#path_1" fill="none" stroke="#8A9099" stroke-width="3" />
        </g>
      </g>
      <path d="M0.749 0L17.251 0Q17.3248 0 17.3971 0.0143918Q17.4695 0.0287836 17.5376 0.0570142Q17.6058 0.0852448 17.6671 0.126229Q17.7285 0.167214 17.7806 0.219377Q17.8328 0.27154 17.8738 0.332878Q17.9148 0.394215 17.943 0.46237Q17.9712 0.530525 17.9856 0.602877Q18 0.67523 18 0.749L18 0.751Q18 0.82477 17.9856 0.897123Q17.9712 0.969475 17.943 1.03763Q17.9148 1.10578 17.8738 1.16712Q17.8328 1.22846 17.7806 1.28062Q17.7285 1.33279 17.6671 1.37377Q17.6058 1.41475 17.5376 1.44299Q17.4695 1.47122 17.3971 1.48561Q17.3248 1.5 17.251 1.5L0.749 1.5Q0.67523 1.5 0.602877 1.48561Q0.530525 1.47122 0.46237 1.44299Q0.394215 1.41475 0.332878 1.37377Q0.27154 1.33279 0.219377 1.28062Q0.167214 1.22846 0.126229 1.16712Q0.0852448 1.10578 0.0570142 1.03763Q0.0287836 0.969475 0.0143918 0.897123Q0 0.82477 0 0.751L0 0.749Q0 0.67523 0.0143918 0.602877Q0.0287836 0.530525 0.0570142 0.46237Q0.0852448 0.394215 0.126229 0.332878Q0.167214 0.27154 0.219377 0.219377Q0.27154 0.167214 0.332878 0.126229Q0.394215 0.0852448 0.46237 0.0570142Q0.530525 0.0287836 0.602877 0.0143918Q0.67523 0 0.749 0L0.749 0Z" transform="translate(0 16)" id="Rectangle-19" fill="#8A9099" stroke="none" />
    </g>
  </g>
</svg>