<?xml version="1.0" encoding="utf-8"?>
<svg width="21px" height="20px" viewBox="0 0 21 20" version="1.1" xmlns:xlink="http://www.w3.org/1999/xlink" xmlns="http://www.w3.org/2000/svg">
  <desc>Created with Lunacy</desc>
  <defs>
    <path d="M15 0L19 0C20.1046 0 21 0.895431 21 2L21 6M21 14L21 18C21 19.1046 20.1046 20 19 20L15 20M6 20L2 20C0.895431 20 0 19.1046 0 18L0 14M0 6L0 2C0 0.895431 0.895431 0 2 0L6 0" id="path_1" />
    <clipPath id="clip_1">
      <use xlink:href="#path_1" />
    </clipPath>
  </defs>
  <g id="Group-15">
    <g id="Rectangle-21">
      <g clip-path="url(#clip_1)">
        <use xlink:href="#path_1" fill="none" stroke="#565C66" stroke-width="3" />
      </g>
    </g>
    <path d="M0.499 0L16.501 0Q16.5501 0 16.5983 0.00958814Q16.6466 0.0191763 16.692 0.0379841Q16.7374 0.0567919 16.7782 0.0840967Q16.8191 0.111401 16.8538 0.146154Q16.8886 0.180906 16.9159 0.22177Q16.9432 0.262635 16.962 0.308041Q16.9808 0.353447 16.9904 0.40165Q17 0.449853 17 0.499L17 1.501Q17 1.55015 16.9904 1.59835Q16.9808 1.64655 16.962 1.69196Q16.9432 1.73736 16.9159 1.77823Q16.8886 1.81909 16.8538 1.85385Q16.8191 1.8886 16.7782 1.9159Q16.7374 1.94321 16.692 1.96202Q16.6466 1.98082 16.5983 1.99041Q16.5501 2 16.501 2L0.499 2Q0.449853 2 0.40165 1.99041Q0.353447 1.98082 0.308041 1.96202Q0.262635 1.94321 0.22177 1.9159Q0.180906 1.8886 0.146154 1.85385Q0.111401 1.81909 0.0840967 1.77823Q0.0567919 1.73737 0.0379841 1.69196Q0.0191763 1.64655 0.00958814 1.59835Q0 1.55015 0 1.501L0 0.499Q0 0.449853 0.00958814 0.40165Q0.0191763 0.353447 0.0379841 0.308041Q0.0567919 0.262635 0.0840967 0.22177Q0.111401 0.180906 0.146154 0.146154Q0.180906 0.111401 0.22177 0.0840967Q0.262635 0.0567919 0.308041 0.0379841Q0.353447 0.0191763 0.40165 0.00958814Q0.449853 0 0.499 0L0.499 0Z" transform="translate(2 9)" id="Rectangle-20" fill="#565C66" stroke="none" />
  </g>
</svg>