<?xml version="1.0" encoding="utf-8"?>
<svg width="24px" height="20px" viewBox="0 0 24 20" version="1.1" xmlns:xlink="http://www.w3.org/1999/xlink" xmlns="http://www.w3.org/2000/svg">
  <desc>Created with Lunacy</desc>
  <g id="Group-5">
    <path d="M1.999 0L22.001 0Q22.0992 0 22.1969 0.00962573Q22.2947 0.0192515 22.391 0.0384102Q22.4873 0.057569 22.5813 0.0860763Q22.6753 0.114584 22.766 0.152165Q22.8567 0.189746 22.9433 0.236039Q23.0299 0.282333 23.1116 0.336892Q23.1932 0.391452 23.2691 0.453752Q23.3451 0.516052 23.4145 0.585494Q23.4839 0.654935 23.5462 0.730848Q23.6085 0.806761 23.6631 0.888415Q23.7177 0.970069 23.764 1.05668Q23.8103 1.14329 23.8478 1.23402Q23.8854 1.32474 23.9139 1.41872Q23.9424 1.5127 23.9616 1.60901Q23.9807 1.70533 23.9904 1.80306Q24 1.9008 24 1.999L24 14.1957L18.7648 8.21262C18.7008 8.13946 18.6315 8.07106 18.5576 8.00797C17.7172 7.29116 16.4548 7.39135 15.738 8.23174L9.97981 14.9827L6.94839 11.6145C6.91288 11.5757 6.91288 11.5757 6.87602 11.5382C6.09497 10.7571 4.82864 10.7571 4.04759 11.5382L-2.22045e-16 15.5858L0 1.999Q0 1.9008 0.00962573 1.80306Q0.0192515 1.70533 0.0384102 1.60901Q0.057569 1.5127 0.0860763 1.41872Q0.114584 1.32474 0.152165 1.23402Q0.189746 1.14329 0.236039 1.05668Q0.282333 0.970069 0.336892 0.888415Q0.391452 0.806761 0.453752 0.730848Q0.516052 0.654935 0.585494 0.585494Q0.654935 0.516052 0.730848 0.453752Q0.806761 0.391452 0.888415 0.336892Q0.970069 0.282333 1.05668 0.236039Q1.14329 0.189746 1.23402 0.152165Q1.32474 0.114584 1.41872 0.0860763Q1.5127 0.057569 1.60901 0.0384102Q1.70533 0.0192515 1.80306 0.00962573Q1.9008 0 1.999 0ZM0.0359271 18.3783Q0.0522186 18.4631 0.0757563 18.5461Q0.0992941 18.6291 0.129903 18.7099Q0.160512 18.7906 0.197964 18.8683Q0.235416 18.9461 0.279432 19.0204Q0.323448 19.0946 0.373701 19.1648Q0.423954 19.235 0.48007 19.3006Q0.536186 19.3661 0.597746 19.4267Q0.659307 19.4872 0.725854 19.5421Q0.792401 19.5971 0.863439 19.6461Q0.934477 19.6952 1.00948 19.7379Q1.08448 19.7806 1.16288 19.8167Q1.24129 19.8528 1.32251 19.8821Q1.40374 19.9113 1.48718 19.9334Q1.57062 19.9555 1.65565 19.9703Q1.74069 19.9851 1.82669 19.9926Q1.91268 20 1.999 20L22.001 20Q22.0992 20 22.1969 19.9904Q22.2947 19.9807 22.391 19.9616Q22.4873 19.9424 22.5813 19.9139Q22.6753 19.8854 22.766 19.8478Q22.8567 19.8103 22.9433 19.764Q23.0299 19.7177 23.1116 19.6631Q23.1932 19.6085 23.2691 19.5462Q23.3451 19.4839 23.4145 19.4145Q23.4839 19.3451 23.5462 19.2692Q23.6085 19.1932 23.6631 19.1116Q23.7177 19.0299 23.764 18.9433Q23.8103 18.8567 23.8478 18.766Q23.8854 18.6753 23.9139 18.5813Q23.9424 18.4873 23.9616 18.391Q23.9807 18.2947 23.9904 18.1969Q24 18.0992 24 18.001L24 17.2329L17.2597 9.52963L11.5015 16.2806C11.4444 16.3475 11.3831 16.4105 11.3177 16.4693C10.4967 17.2082 9.23214 17.1417 8.49322 16.3206L5.46181 12.9524L0.0359271 18.3783ZM8 8C9.10457 8 10 7.10457 10 6C10 4.89543 9.10457 4 8 4C6.89543 4 6 4.89543 6 6C6 7.10457 6.89543 8 8 8Z" id="Combined-Shape" fill="#FFFFFF" fill-rule="evenodd" stroke="none" />
  </g>
</svg>