<?xml version="1.0" encoding="utf-8"?>
<svg width="20px" height="24px" viewBox="0 0 20 24" version="1.1" xmlns:xlink="http://www.w3.org/1999/xlink" xmlns="http://www.w3.org/2000/svg">
  <desc>Created with Lunacy</desc>
  <g id="Group-5">
    <path d="M18.001 0L1.999 0Q1.9008 0 1.80306 0.00962573Q1.70533 0.0192515 1.60901 0.0384102Q1.5127 0.057569 1.41872 0.0860763Q1.32474 0.114584 1.23402 0.152165Q1.14329 0.189746 1.05668 0.236039Q0.970069 0.282333 0.888415 0.336892Q0.806761 0.391452 0.730848 0.453752Q0.654935 0.516052 0.585493 0.585494Q0.516052 0.654935 0.453752 0.730848Q0.391452 0.806761 0.336892 0.888415Q0.282333 0.970069 0.236039 1.05668Q0.189746 1.14329 0.152165 1.23402Q0.114584 1.32474 0.0860763 1.41872Q0.057569 1.5127 0.0384102 1.60901Q0.0192515 1.70533 0.00962573 1.80306Q0 1.9008 0 1.999L0 16L20 16L20 1.999Q20 1.9008 19.9904 1.80306Q19.9807 1.70533 19.9616 1.60901Q19.9424 1.5127 19.9139 1.41872Q19.8854 1.32474 19.8478 1.23402Q19.8103 1.14329 19.764 1.05668Q19.7177 0.970069 19.6631 0.888415Q19.6085 0.806761 19.5462 0.730848Q19.4839 0.654935 19.4145 0.585494Q19.3451 0.516052 19.2692 0.453752Q19.1932 0.391452 19.1116 0.336892Q19.0299 0.282333 18.9433 0.236039Q18.8567 0.189746 18.766 0.152165Q18.6753 0.114584 18.5813 0.0860763Q18.4873 0.057569 18.391 0.0384102Q18.2947 0.0192515 18.1969 0.00962573Q18.0992 0 18.001 0ZM20 18L0 18L0 22.001Q0 22.0992 0.00962573 22.1969Q0.0192515 22.2947 0.0384102 22.391Q0.057569 22.4873 0.0860763 22.5813Q0.114584 22.6753 0.152165 22.766Q0.189746 22.8567 0.236039 22.9433Q0.282333 23.0299 0.336892 23.1116Q0.391452 23.1932 0.453752 23.2691Q0.516052 23.3451 0.585494 23.4145Q0.654935 23.4839 0.730848 23.5462Q0.806761 23.6085 0.888415 23.6631Q0.970069 23.7177 1.05668 23.764Q1.14329 23.8103 1.23402 23.8478Q1.32474 23.8854 1.41872 23.9139Q1.5127 23.9424 1.60901 23.9616Q1.70533 23.9807 1.80306 23.9904Q1.9008 24 1.999 24L18.001 24Q18.0992 24 18.1969 23.9904Q18.2947 23.9807 18.391 23.9616Q18.4873 23.9424 18.5813 23.9139Q18.6753 23.8854 18.766 23.8478Q18.8567 23.8103 18.9433 23.764Q19.0299 23.7177 19.1116 23.6631Q19.1932 23.6085 19.2692 23.5462Q19.3451 23.4839 19.4145 23.4145Q19.4839 23.3451 19.5462 23.2691Q19.6085 23.1932 19.6631 23.1116Q19.7177 23.0299 19.764 22.9433Q19.8103 22.8567 19.8478 22.766Q19.8854 22.6753 19.9139 22.5813Q19.9424 22.4873 19.9616 22.391Q19.9807 22.2947 19.9904 22.1969Q20 22.0992 20 22.001L20 18Z" id="Combined-Shape" fill="#FFFFFF" fill-rule="evenodd" stroke="none" />
    <path d="M0.999 0L2.001 0Q2.09939 0 2.19589 0.0191955Q2.2924 0.038391 2.3833 0.0760443Q2.4742 0.113698 2.55601 0.168362Q2.63783 0.223026 2.7074 0.2926Q2.77697 0.362175 2.83164 0.443985Q2.8863 0.525796 2.92396 0.616699Q2.96161 0.707602 2.9808 0.804105Q3 0.900607 3 0.999L3 1.001Q3 1.09939 2.9808 1.1959Q2.96161 1.2924 2.92396 1.3833Q2.8863 1.4742 2.83164 1.55601Q2.77697 1.63783 2.7074 1.7074Q2.63783 1.77697 2.55601 1.83164Q2.4742 1.8863 2.3833 1.92396Q2.2924 1.96161 2.19589 1.9808Q2.09939 2 2.001 2L0.999 2Q0.900607 2 0.804105 1.9808Q0.707602 1.96161 0.616699 1.92396Q0.525796 1.8863 0.443985 1.83164Q0.362175 1.77697 0.2926 1.7074Q0.223026 1.63783 0.168362 1.55601Q0.113698 1.4742 0.0760443 1.3833Q0.038391 1.2924 0.0191955 1.1959Q0 1.09939 0 1.001L0 0.999Q0 0.900607 0.0191955 0.804105Q0.038391 0.707602 0.0760443 0.616699Q0.113698 0.525796 0.168362 0.443985Q0.223026 0.362175 0.2926 0.2926Q0.362175 0.223026 0.443985 0.168362Q0.525796 0.113698 0.616699 0.0760443Q0.707602 0.038391 0.804105 0.0191955Q0.900607 0 0.999 0Z" transform="translate(8.5 20)" id="Rectangle-14" fill="#FFB70F" stroke="none" />
  </g>
</svg>