<?xml version="1.0" encoding="utf-8"?>
<svg width="26px" height="22px" viewBox="0 0 26 22" version="1.1" xmlns:xlink="http://www.w3.org/1999/xlink" xmlns="http://www.w3.org/2000/svg">
  <desc>Created with Lunacy</desc>
  <g id="Group-5" transform="translate(1 1)">
    <path d="M1.999 0L22.001 0Q22.0992 0 22.1969 0.00962573Q22.2947 0.0192515 22.391 0.0384102Q22.4873 0.057569 22.5813 0.0860763Q22.6753 0.114584 22.766 0.152165Q22.8567 0.189746 22.9433 0.236039Q23.0299 0.282333 23.1116 0.336892Q23.1932 0.391452 23.2691 0.453752Q23.3451 0.516052 23.4145 0.585494Q23.4839 0.654935 23.5462 0.730848Q23.6085 0.806761 23.6631 0.888415Q23.7177 0.970069 23.764 1.05668Q23.8103 1.14329 23.8478 1.23402Q23.8854 1.32474 23.9139 1.41872Q23.9424 1.5127 23.9616 1.60901Q23.9807 1.70533 23.9904 1.80306Q24 1.9008 24 1.999L24 18.001Q24 18.0992 23.9904 18.1969Q23.9807 18.2947 23.9616 18.391Q23.9424 18.4873 23.9139 18.5813Q23.8854 18.6753 23.8478 18.766Q23.8103 18.8567 23.764 18.9433Q23.7177 19.0299 23.6631 19.1116Q23.6085 19.1932 23.5462 19.2692Q23.4839 19.3451 23.4145 19.4145Q23.3451 19.4839 23.2691 19.5462Q23.1932 19.6085 23.1116 19.6631Q23.0299 19.7177 22.9433 19.764Q22.8567 19.8103 22.766 19.8478Q22.6753 19.8854 22.5813 19.9139Q22.4873 19.9424 22.391 19.9616Q22.2947 19.9807 22.1969 19.9904Q22.0992 20 22.001 20L1.999 20Q1.9008 20 1.80306 19.9904Q1.70533 19.9807 1.60901 19.9616Q1.5127 19.9424 1.41872 19.9139Q1.32474 19.8854 1.23402 19.8478Q1.14329 19.8103 1.05668 19.764Q0.970069 19.7177 0.888415 19.6631Q0.806761 19.6085 0.730848 19.5462Q0.654935 19.4839 0.585494 19.4145Q0.516052 19.3451 0.453752 19.2692Q0.391452 19.1932 0.336892 19.1116Q0.282333 19.0299 0.236039 18.9433Q0.189746 18.8567 0.152165 18.766Q0.114584 18.6753 0.0860763 18.5813Q0.057569 18.4873 0.0384102 18.391Q0.0192515 18.2947 0.00962573 18.1969Q0 18.0992 0 18.001L0 1.999Q0 1.9008 0.00962573 1.80306Q0.0192515 1.70533 0.0384102 1.60901Q0.057569 1.5127 0.0860763 1.41872Q0.114584 1.32474 0.152165 1.23402Q0.189746 1.14329 0.236039 1.05668Q0.282333 0.970069 0.336892 0.888415Q0.391452 0.806761 0.453752 0.730848Q0.516052 0.654935 0.585494 0.585494Q0.654935 0.516052 0.730848 0.453752Q0.806761 0.391452 0.888415 0.336892Q0.970069 0.282333 1.05668 0.236039Q1.14329 0.189746 1.23402 0.152165Q1.32474 0.114584 1.41872 0.0860763Q1.5127 0.057569 1.60901 0.0384102Q1.70533 0.0192515 1.80306 0.00962573Q1.9008 0 1.999 0Z" id="Rectangle-13" fill="#FFFFFF" stroke="none" />
    <path d="M1.62308 0.21784L4.0249 2.13935Q4.06863 2.17434 4.10818 2.21399Q4.14773 2.25365 4.1826 2.29748Q4.21746 2.3413 4.24722 2.38875Q4.27697 2.43621 4.30123 2.48668Q4.32549 2.53716 4.34395 2.59004Q4.36242 2.64291 4.37486 2.69752Q4.3873 2.75212 4.39356 2.80778Q4.39982 2.86344 4.39982 2.91944Q4.39982 2.97545 4.39356 3.0311Q4.3873 3.08676 4.37485 3.14136Q4.36241 3.19597 4.34394 3.24884Q4.32548 3.30172 4.30122 3.3522Q4.27695 3.40267 4.2472 3.45012Q4.21745 3.49757 4.18258 3.5414Q4.14771 3.58523 4.10816 3.62488Q4.06861 3.66454 4.02488 3.69952L1.62306 5.62093Q1.59568 5.64283 1.56683 5.66276Q1.53798 5.68269 1.5078 5.70055Q1.47762 5.71841 1.44627 5.73411Q1.41491 5.74981 1.38254 5.76327Q1.35016 5.77674 1.31691 5.7879Q1.28367 5.79905 1.24973 5.80785Q1.21579 5.81666 1.18131 5.82305Q1.14683 5.82945 1.11199 5.83342Q1.07715 5.83739 1.04212 5.8389Q1.00708 5.84041 0.972032 5.83947Q0.936979 5.83852 0.902079 5.83512Q0.867178 5.83172 0.832603 5.82588Q0.798027 5.82003 0.763946 5.81178Q0.729864 5.80353 0.696446 5.79291Q0.663027 5.78229 0.630435 5.76936Q0.597843 5.75642 0.566238 5.74123Q0.534634 5.72604 0.504172 5.70867Q0.47371 5.6913 0.444541 5.67184Q0.415372 5.65238 0.387639 5.63092Q0.359907 5.60946 0.333747 5.58611Q0.307587 5.56276 0.283129 5.53763Q0.258671 5.5125 0.236035 5.48572Q0.213399 5.45894 0.192696 5.43064Q0.171993 5.40234 0.153326 5.37265Q0.134658 5.34297 0.118118 5.31205Q0.101578 5.28113 0.0872465 5.24913Q0.072915 5.21712 0.0608627 5.1842Q0.0488103 5.15127 0.0390965 5.11757Q0.0293826 5.08388 0.0220551 5.04959Q0.0147276 5.0153 0.00982241 4.98058Q0.00491725 4.94585 0.00245863 4.91088Q-6.33165e-16 4.8759 -6.34139e-16 4.84083L-7.40801e-16 0.997919Q-7.41774e-16 0.962853 0.00245869 0.927874Q0.00491737 0.892894 0.00982264 0.858173Q0.0147279 0.823451 0.0220556 0.78916Q0.0293833 0.754868 0.0390974 0.721174Q0.0488115 0.68748 0.0608641 0.654551Q0.0729167 0.621621 0.0872486 0.589618Q0.10158 0.557614 0.118121 0.526694Q0.134662 0.495774 0.153329 0.46609Q0.171997 0.436406 0.1927 0.408104Q0.213403 0.379802 0.23604 0.353022Q0.258677 0.326241 0.283136 0.301113Q0.307594 0.275985 0.333755 0.252635Q0.359915 0.229284 0.387648 0.207825Q0.415381 0.186365 0.444551 0.166904Q0.473721 0.147442 0.504183 0.130073Q0.534645 0.112705 0.566251 0.0975146Q0.597856 0.0823246 0.630448 0.069388Q0.663041 0.0564514 0.69646 0.0458319Q0.729879 0.0352124 0.763961 0.0269623Q0.798043 0.0187122 0.832619 0.012872Q0.867195 0.00703184 0.902096 0.0036304Q0.936997 0.000228959 0.97205 -0.000717017Q1.0071 -0.00166299 1.04214 -0.000148849Q1.07717 0.00136529 1.11201 0.0053321Q1.14685 0.00929892 1.18133 0.0156989Q1.21581 0.0220988 1.24975 0.0309004Q1.28369 0.039702 1.31694 0.0508619Q1.35018 0.0620218 1.38256 0.0754851Q1.41494 0.0889484 1.44629 0.104649Q1.47765 0.120349 1.50782 0.138209Q1.538 0.15607 1.56685 0.176002Q1.5957 0.195934 1.62308 0.21784Z" transform="matrix(0.7071068 -0.7071068 0.7071068 0.7071068 14.56628 7.090622)" id="Rectangle" fill="#3ACF68" stroke="none" />
    <path d="M0 3.5L3.29663 0.61545Q3.36752 0.55342 3.44876 0.505735Q3.52999 0.45805 3.61871 0.42639Q3.70743 0.39473 3.8005 0.380211Q3.89357 0.365693 3.98772 0.368827Q4.08187 0.371962 4.17377 0.39264Q4.26567 0.413317 4.35208 0.450808Q4.4385 0.4883 4.51638 0.541283Q4.59427 0.594266 4.66087 0.660874L7.2936 3.2936Q7.36317 3.36317 7.44498 3.41784Q7.5268 3.4725 7.6177 3.51016Q7.7086 3.54781 7.8051 3.567Q7.90161 3.5862 8 3.5862Q8.09839 3.5862 8.19489 3.56701Q8.2914 3.54781 8.3823 3.51016Q8.4732 3.4725 8.55501 3.41784Q8.63683 3.36317 8.7064 3.2936L12 -2.84217e-14" transform="translate(5 9)" id="Path-2" fill="none" stroke="#3BCF69" stroke-width="2" stroke-linecap="round" />
  </g>
</svg>