<?xml version="1.0" encoding="utf-8"?>
<svg width="20px" height="20px" viewBox="0 0 20 20" version="1.1" xmlns:xlink="http://www.w3.org/1999/xlink" xmlns="http://www.w3.org/2000/svg">
  <desc>Created with Lunacy</desc>
  <path d="M1.999 0L7.001 0Q7.0992 0 7.19694 0.00962573Q7.29467 0.0192515 7.39099 0.0384102Q7.4873 0.057569 7.58128 0.0860763Q7.67525 0.114584 7.76598 0.152165Q7.85671 0.189746 7.94332 0.236039Q8.02993 0.282333 8.11158 0.336892Q8.19324 0.391452 8.26915 0.453752Q8.34506 0.516052 8.41451 0.585494Q8.48395 0.654935 8.54625 0.730848Q8.60855 0.806761 8.66311 0.888415Q8.71767 0.970069 8.76396 1.05668Q8.81025 1.14329 8.84783 1.23402Q8.88542 1.32474 8.91392 1.41872Q8.94243 1.5127 8.96159 1.60901Q8.98075 1.70533 8.99037 1.80306Q9 1.9008 9 1.999L9 7.001Q9 7.0992 8.99037 7.19694Q8.98075 7.29467 8.96159 7.39099Q8.94243 7.4873 8.91392 7.58128Q8.88542 7.67525 8.84783 7.76598Q8.81025 7.85671 8.76396 7.94332Q8.71767 8.02993 8.66311 8.11158Q8.60855 8.19324 8.54625 8.26915Q8.48395 8.34506 8.41451 8.41451Q8.34506 8.48395 8.26915 8.54625Q8.19324 8.60855 8.11158 8.66311Q8.02993 8.71767 7.94332 8.76396Q7.85671 8.81025 7.76598 8.84783Q7.67525 8.88542 7.58128 8.91392Q7.4873 8.94243 7.39098 8.96159Q7.29467 8.98075 7.19694 8.99037Q7.0992 9 7.001 9L1.999 9Q1.9008 9 1.80306 8.99037Q1.70533 8.98075 1.60901 8.96159Q1.5127 8.94243 1.41872 8.91392Q1.32474 8.88542 1.23402 8.84783Q1.14329 8.81025 1.05668 8.76396Q0.970069 8.71767 0.888415 8.66311Q0.806761 8.60855 0.730848 8.54625Q0.654935 8.48395 0.585494 8.41451Q0.516052 8.34506 0.453752 8.26915Q0.391452 8.19324 0.336892 8.11158Q0.282333 8.02993 0.236039 7.94332Q0.189746 7.85671 0.152165 7.76598Q0.114584 7.67525 0.0860763 7.58128Q0.057569 7.4873 0.0384102 7.39098Q0.0192515 7.29467 0.00962573 7.19694Q0 7.0992 0 7.001L0 1.999Q0 1.9008 0.00962573 1.80306Q0.0192515 1.70533 0.0384102 1.60901Q0.057569 1.5127 0.0860763 1.41872Q0.114584 1.32474 0.152165 1.23402Q0.189746 1.14329 0.236039 1.05668Q0.282333 0.970069 0.336892 0.888415Q0.391452 0.806761 0.453752 0.730848Q0.516052 0.654935 0.585494 0.585494Q0.654935 0.516052 0.730848 0.453752Q0.806761 0.391452 0.888415 0.336892Q0.970069 0.282333 1.05668 0.236039Q1.14329 0.189746 1.23402 0.152165Q1.32474 0.114584 1.41872 0.0860763Q1.5127 0.057569 1.60901 0.0384102Q1.70533 0.0192515 1.80306 0.00962573Q1.9008 0 1.999 0ZM12.999 0L18.001 0Q18.0992 0 18.1969 0.00962573Q18.2947 0.0192515 18.391 0.0384102Q18.4873 0.057569 18.5813 0.0860763Q18.6753 0.114584 18.766 0.152165Q18.8567 0.189746 18.9433 0.236039Q19.0299 0.282333 19.1116 0.336892Q19.1932 0.391452 19.2692 0.453752Q19.3451 0.516052 19.4145 0.585494Q19.4839 0.654935 19.5462 0.730848Q19.6085 0.806761 19.6631 0.888415Q19.7177 0.970069 19.764 1.05668Q19.8103 1.14329 19.8478 1.23402Q19.8854 1.32474 19.9139 1.41872Q19.9424 1.5127 19.9616 1.60901Q19.9807 1.70533 19.9904 1.80306Q20 1.9008 20 1.999L20 7.001Q20 7.0992 19.9904 7.19694Q19.9807 7.29467 19.9616 7.39099Q19.9424 7.4873 19.9139 7.58128Q19.8854 7.67525 19.8478 7.76598Q19.8103 7.85671 19.764 7.94332Q19.7177 8.02993 19.6631 8.11158Q19.6085 8.19324 19.5462 8.26915Q19.4839 8.34506 19.4145 8.41451Q19.3451 8.48395 19.2692 8.54625Q19.1932 8.60855 19.1116 8.66311Q19.0299 8.71767 18.9433 8.76396Q18.8567 8.81025 18.766 8.84783Q18.6753 8.88542 18.5813 8.91392Q18.4873 8.94243 18.391 8.96159Q18.2947 8.98075 18.1969 8.99037Q18.0992 9 18.001 9L12.999 9Q12.9008 9 12.8031 8.99037Q12.7053 8.98075 12.609 8.96159Q12.5127 8.94243 12.4187 8.91392Q12.3247 8.88542 12.234 8.84783Q12.1433 8.81025 12.0567 8.76396Q11.9701 8.71767 11.8884 8.66311Q11.8068 8.60855 11.7308 8.54625Q11.6549 8.48395 11.5855 8.41451Q11.5161 8.34506 11.4538 8.26915Q11.3915 8.19324 11.3369 8.11158Q11.2823 8.02993 11.236 7.94332Q11.1897 7.85671 11.1522 7.76598Q11.1146 7.67525 11.0861 7.58128Q11.0576 7.4873 11.0384 7.39098Q11.0193 7.29467 11.0096 7.19694Q11 7.0992 11 7.001L11 1.999Q11 1.9008 11.0096 1.80306Q11.0193 1.70533 11.0384 1.60901Q11.0576 1.5127 11.0861 1.41872Q11.1146 1.32474 11.1522 1.23402Q11.1897 1.14329 11.236 1.05668Q11.2823 0.970069 11.3369 0.888415Q11.3915 0.806761 11.4538 0.730848Q11.5161 0.654935 11.5855 0.585494Q11.6549 0.516052 11.7308 0.453752Q11.8068 0.391452 11.8884 0.336892Q11.9701 0.282333 12.0567 0.236039Q12.1433 0.189746 12.234 0.152165Q12.3247 0.114584 12.4187 0.0860763Q12.5127 0.057569 12.609 0.0384102Q12.7053 0.0192515 12.8031 0.00962573Q12.9008 0 12.999 0ZM7.001 11L1.999 11Q1.9008 11 1.80306 11.0096Q1.70533 11.0193 1.60901 11.0384Q1.5127 11.0576 1.41872 11.0861Q1.32474 11.1146 1.23402 11.1522Q1.14329 11.1897 1.05668 11.236Q0.970069 11.2823 0.888415 11.3369Q0.806761 11.3915 0.730848 11.4538Q0.654935 11.5161 0.585494 11.5855Q0.516052 11.6549 0.453752 11.7308Q0.391452 11.8068 0.336892 11.8884Q0.282333 11.9701 0.236039 12.0567Q0.189746 12.1433 0.152165 12.234Q0.114584 12.3247 0.0860763 12.4187Q0.057569 12.5127 0.0384102 12.609Q0.0192515 12.7053 0.00962573 12.8031Q0 12.9008 0 12.999L0 18.001Q0 18.0992 0.00962573 18.1969Q0.0192515 18.2947 0.0384102 18.391Q0.057569 18.4873 0.0860763 18.5813Q0.114584 18.6753 0.152165 18.766Q0.189746 18.8567 0.236039 18.9433Q0.282333 19.0299 0.336892 19.1116Q0.391452 19.1932 0.453752 19.2692Q0.516052 19.3451 0.585494 19.4145Q0.654935 19.4839 0.730848 19.5462Q0.806761 19.6085 0.888415 19.6631Q0.970069 19.7177 1.05668 19.764Q1.14329 19.8103 1.23402 19.8478Q1.32474 19.8854 1.41872 19.9139Q1.5127 19.9424 1.60901 19.9616Q1.70533 19.9807 1.80306 19.9904Q1.9008 20 1.999 20L7.001 20Q7.0992 20 7.19694 19.9904Q7.29467 19.9807 7.39099 19.9616Q7.4873 19.9424 7.58128 19.9139Q7.67525 19.8854 7.76598 19.8478Q7.85671 19.8103 7.94332 19.764Q8.02993 19.7177 8.11158 19.6631Q8.19324 19.6085 8.26915 19.5462Q8.34506 19.4839 8.41451 19.4145Q8.48395 19.3451 8.54625 19.2692Q8.60855 19.1932 8.66311 19.1116Q8.71767 19.0299 8.76396 18.9433Q8.81025 18.8567 8.84783 18.766Q8.88542 18.6753 8.91392 18.5813Q8.94243 18.4873 8.96159 18.391Q8.98075 18.2947 8.99037 18.1969Q9 18.0992 9 18.001L9 12.999Q9 12.9008 8.99037 12.8031Q8.98075 12.7053 8.96159 12.609Q8.94243 12.5127 8.91392 12.4187Q8.88542 12.3247 8.84783 12.234Q8.81025 12.1433 8.76396 12.0567Q8.71767 11.9701 8.66311 11.8884Q8.60855 11.8068 8.54625 11.7308Q8.48395 11.6549 8.41451 11.5855Q8.34506 11.5161 8.26915 11.4538Q8.19324 11.3915 8.11158 11.3369Q8.02993 11.2823 7.94332 11.236Q7.85671 11.1897 7.76598 11.1522Q7.67525 11.1146 7.58128 11.0861Q7.4873 11.0576 7.39098 11.0384Q7.29467 11.0193 7.19694 11.0096Q7.0992 11 7.001 11ZM18.001 11L12.999 11Q12.9008 11 12.8031 11.0096Q12.7053 11.0193 12.609 11.0384Q12.5127 11.0576 12.4187 11.0861Q12.3247 11.1146 12.234 11.1522Q12.1433 11.1897 12.0567 11.236Q11.9701 11.2823 11.8884 11.3369Q11.8068 11.3915 11.7308 11.4538Q11.6549 11.5161 11.5855 11.5855Q11.5161 11.6549 11.4538 11.7308Q11.3915 11.8068 11.3369 11.8884Q11.2823 11.9701 11.236 12.0567Q11.1897 12.1433 11.1522 12.234Q11.1146 12.3247 11.0861 12.4187Q11.0576 12.5127 11.0384 12.609Q11.0193 12.7053 11.0096 12.8031Q11 12.9008 11 12.999L11 18.001Q11 18.0992 11.0096 18.1969Q11.0193 18.2947 11.0384 18.391Q11.0576 18.4873 11.0861 18.5813Q11.1146 18.6753 11.1522 18.766Q11.1897 18.8567 11.236 18.9433Q11.2823 19.0299 11.3369 19.1116Q11.3915 19.1932 11.4538 19.2692Q11.5161 19.3451 11.5855 19.4145Q11.6549 19.4839 11.7308 19.5462Q11.8068 19.6085 11.8884 19.6631Q11.9701 19.7177 12.0567 19.764Q12.1433 19.8103 12.234 19.8478Q12.3247 19.8854 12.4187 19.9139Q12.5127 19.9424 12.609 19.9616Q12.7053 19.9807 12.8031 19.9904Q12.9008 20 12.999 20L18.001 20Q18.0992 20 18.1969 19.9904Q18.2947 19.9807 18.391 19.9616Q18.4873 19.9424 18.5813 19.9139Q18.6753 19.8854 18.766 19.8478Q18.8567 19.8103 18.9433 19.764Q19.0299 19.7177 19.1116 19.6631Q19.1932 19.6085 19.2692 19.5462Q19.3451 19.4839 19.4145 19.4145Q19.4839 19.3451 19.5462 19.2692Q19.6085 19.1932 19.6631 19.1116Q19.7177 19.0299 19.764 18.9433Q19.8103 18.8567 19.8478 18.766Q19.8854 18.6753 19.9139 18.5813Q19.9424 18.4873 19.9616 18.391Q19.9807 18.2947 19.9904 18.1969Q20 18.0992 20 18.001L20 12.999Q20 12.9008 19.9904 12.8031Q19.9807 12.7053 19.9616 12.609Q19.9424 12.5127 19.9139 12.4187Q19.8854 12.3247 19.8478 12.234Q19.8103 12.1433 19.764 12.0567Q19.7177 11.9701 19.6631 11.8884Q19.6085 11.8068 19.5462 11.7308Q19.4839 11.6549 19.4145 11.5855Q19.3451 11.5161 19.2692 11.4538Q19.1932 11.3915 19.1116 11.3369Q19.0299 11.2823 18.9433 11.236Q18.8567 11.1897 18.766 11.1522Q18.6753 11.1146 18.5813 11.0861Q18.4873 11.0576 18.391 11.0384Q18.2947 11.0193 18.1969 11.0096Q18.0992 11 18.001 11Z" id="Combined-Shape" fill="#FFFFFF" fill-rule="evenodd" stroke="none" />
</svg>