<?xml version="1.0" encoding="utf-8"?>
<svg width="24px" height="26px" viewBox="0 0 24 26" version="1.1" xmlns:xlink="http://www.w3.org/1999/xlink" xmlns="http://www.w3.org/2000/svg">
  <desc>Created with Lunacy</desc>
  <path d="M11.7427 11.4336L20.1912 6.75053Q20.3072 6.68623 20.4024 6.59389Q20.4976 6.50155 20.5655 6.38756Q20.6333 6.27358 20.669 6.14585Q20.7047 6.01812 20.7059 5.8855Q20.707 5.75288 20.6735 5.62454Q20.6401 5.49621 20.5742 5.38106Q20.5084 5.26591 20.4148 5.17192Q20.3213 5.07794 20.2064 5.01162L11.7579 0.133845Q11.644 0.068085 11.5169 0.0340449Q11.3899 4.77533e-06 11.2584 4.77533e-06Q11.1268 4.77533e-06 10.9998 0.0340449Q10.8728 0.068085 10.7589 0.133845L2.31029 5.01162Q2.19543 5.07794 2.10185 5.17192Q2.00827 5.26591 1.94246 5.38106Q1.87665 5.49621 1.84316 5.62454Q1.80967 5.75287 1.81083 5.8855Q1.81199 6.01812 1.84771 6.14585Q1.88343 6.27358 1.95125 6.38756Q2.01906 6.50155 2.11426 6.59389Q2.20947 6.68623 2.32547 6.75053L10.774 11.4336Q10.8852 11.4953 11.0082 11.5271Q11.1313 11.5589 11.2584 11.5589Q11.3854 11.5589 11.5085 11.5271Q11.6315 11.4953 11.7427 11.4336ZM22.5166 9.44418L22.5166 18.7687Q22.5166 18.9002 22.4826 19.0272Q22.4486 19.1543 22.3828 19.2682Q22.317 19.3821 22.224 19.4751Q22.131 19.5681 22.0171 19.6338L13.7568 24.4029Q13.6429 24.4687 13.5159 24.5027Q13.3888 24.5368 13.2573 24.5368Q13.1258 24.5368 12.9987 24.5027Q12.8717 24.4687 12.7578 24.4029Q12.6439 24.3372 12.5509 24.2442Q12.4579 24.1512 12.3921 24.0373Q12.3264 23.9234 12.2923 23.7963Q12.2583 23.6693 12.2583 23.5378L12.2583 14.023Q12.2583 13.8892 12.2935 13.7602Q12.3287 13.6312 12.3965 13.5159Q12.4644 13.4007 12.5602 13.3074Q12.656 13.214 12.773 13.1492L21.0333 8.57044Q21.1474 8.50721 21.2738 8.47538Q21.4003 8.44356 21.5307 8.44527Q21.6611 8.44697 21.7867 8.4821Q21.9123 8.51722 22.0247 8.58341Q22.137 8.6496 22.2286 8.74242Q22.3203 8.83524 22.385 8.94846Q22.4497 9.06168 22.4832 9.18773Q22.5166 9.31377 22.5166 9.44418ZM0.4995 19.6338L8.75983 24.4029Q8.87373 24.4687 9.00077 24.5027Q9.12781 24.5368 9.25933 24.5368Q9.39085 24.5368 9.51789 24.5027Q9.64493 24.4687 9.75883 24.4029Q9.87273 24.3372 9.96573 24.2442Q10.0587 24.1512 10.1245 24.0373Q10.1903 23.9234 10.2243 23.7963Q10.2583 23.6693 10.2583 23.5378L10.2583 14.023Q10.2583 13.8892 10.2232 13.7602Q10.188 13.6312 10.1201 13.5159Q10.0522 13.4007 9.95642 13.3074Q9.86062 13.214 9.74366 13.1492L1.48332 8.57044Q1.36926 8.50721 1.24279 8.47538Q1.11632 8.44356 0.985924 8.44527Q0.855522 8.44697 0.729929 8.4821Q0.604336 8.51722 0.491969 8.58341Q0.379602 8.6496 0.287992 8.74242Q0.196382 8.83524 0.131669 8.94846Q0.0669566 9.06168 0.0334783 9.18773Q0 9.31377 0 9.44418L0 18.7687Q0 18.9002 0.0340401 19.0272Q0.0680802 19.1543 0.133841 19.2682Q0.199601 19.3821 0.2926 19.4751Q0.3856 19.5681 0.4995 19.6338Z" transform="translate(0.5 0.5)" id="Combined-Shape-Copy" fill="#FFFFFF" fill-rule="evenodd" stroke="none" />
</svg>