<?xml version="1.0" encoding="utf-8"?>
<svg width="25px" height="25px" viewBox="0 0 25 25" version="1.1" xmlns:xlink="http://www.w3.org/1999/xlink" xmlns="http://www.w3.org/2000/svg">
  <desc>Created with Lunacy</desc>
  <g id="Group-3" transform="translate(0.5 0.5)">
    <path d="M12.7778 23.9752C12.5206 23.9916 12.2613 24 12 24C5.37258 24 0 18.6274 0 12C0 5.37258 5.37258 0 12 0C18.6274 0 24 5.37258 24 12C24 16.1739 21.869 19.8502 18.6356 22L21.001 22Q21.0994 22 21.1959 22.0192Q21.2924 22.0384 21.3833 22.076Q21.4742 22.1137 21.556 22.1684Q21.6378 22.223 21.7074 22.2926Q21.777 22.3622 21.8316 22.444Q21.8863 22.5258 21.924 22.6167Q21.9616 22.7076 21.9808 22.8041Q22 22.9006 22 22.999L22 23.001Q22 23.0994 21.9808 23.1959Q21.9616 23.2924 21.924 23.3833Q21.8863 23.4742 21.8316 23.556Q21.777 23.6378 21.7074 23.7074Q21.6378 23.777 21.556 23.8316Q21.4742 23.8863 21.3833 23.924Q21.2924 23.9616 21.1959 23.9808Q21.0994 24 21.001 24L12.999 24Q12.887 24 12.7778 23.9752Z" id="Combined-Shape" fill="#FFFFFF" fill-rule="evenodd" stroke="none" />
    <path d="M8 4C9.10457 4 10 3.10457 10 2C10 0.895431 9.10457 0 8 0C6.89543 0 6 0.895431 6 2C6 3.10457 6.89543 4 8 4ZM2 6C3.10457 6 4 6.89543 4 8C4 9.10457 3.10457 10 2 10C0.895431 10 0 9.10457 0 8C0 6.89543 0.89543 6 2 6ZM14 10C12.8954 10 12 9.10457 12 8C12 6.89543 12.8954 6 14 6C15.1046 6 16 6.89543 16 8C16 9.10457 15.1046 10 14 10ZM8 12C6.89543 12 6 12.8954 6 14C6 15.1046 6.89543 16 8 16C9.10457 16 10 15.1046 10 14C10 12.8954 9.10457 12 8 12Z" transform="translate(4 4)" id="Oval-7" fill="#FF8099" fill-rule="evenodd" stroke="none" />
  </g>
</svg>